<svg xmlns="http://www.w3.org/2000/svg" viewBox="0 0 100 115" fill="none">
  <!-- Gold Shield Outer Border -->
  <path d="M50 6L88 22V58C88 80 72 96 50 106C28 96 12 80 12 58V22L50 6Z" fill="#C59B27"/>
  <!-- Navy Blue Shield Body -->
  <path d="M50 11L83 25V58C83 77 69 91 50 100C31 91 17 77 17 58V25L50 11Z" fill="#0A182E"/>
  <!-- Cyan Hexagonal Network Lines -->
  <polygon points="50,28 72,40 72,64 50,76 28,64 28,40" fill="none" stroke="#00B4D8" stroke-width="2.5" stroke-linejoin="round"/>
  <!-- Golden Connection Nodes -->
  <circle cx="50" cy="28" r="3.2" fill="#E5A93C"/>
  <circle cx="72" cy="40" r="3.2" fill="#E5A93C"/>
  <circle cx="72" cy="64" r="3.2" fill="#E5A93C"/>
  <circle cx="50" cy="76" r="3.2" fill="#E5A93C"/>
  <circle cx="28" cy="64" r="3.2" fill="#E5A93C"/>
  <circle cx="28" cy="40" r="3.2" fill="#E5A93C"/>
  <!-- Padlock Shackle -->
  <path d="M42 50V44C42 39.6 45.6 36 50 36C54.4 36 58 39.6 58 44V50" stroke="#E5A93C" stroke-width="2.6" stroke-linecap="round" fill="none"/>
  <!-- Padlock Body -->
  <rect x="38" y="49" width="24" height="18" rx="4" fill="#0077B6" stroke="#00B4D8" stroke-width="1.8"/>
  <!-- Keyhole -->
  <circle cx="50" cy="56" r="2.2" fill="#E5A93C"/>
  <path d="M48.8 56.5L48 61H52L51.2 56.5Z" fill="#E5A93C"/>
</svg>
